<svg width="14" height="14" viewBox="0 0 14 14" fill="none" xmlns="http://www.w3.org/2000/svg">
<path d="M5.34745 4.16804C5.53582 3.76532 5.62027 3.30413 5.5683 2.81047C5.44489 1.68674 4.56799 0.731892 3.45075 0.543521C1.65148 0.231734 0.11203 1.77118 0.423817 3.56396C0.618684 4.68119 1.56704 5.5581 2.69077 5.68151C3.18443 5.73348 3.63912 5.64903 4.04834 5.46066L5.58129 7.00011L4.04834 8.53306C3.64562 8.34469 3.18443 8.26025 2.69077 8.31221C1.56704 8.43563 0.612188 9.31253 0.423817 10.4298C0.11203 12.229 1.65148 13.762 3.44425 13.4502C4.56149 13.2553 5.43839 12.307 5.56181 11.1833C5.61377 10.6896 5.52933 10.2349 5.34096 9.82568L6.88041 8.29922L11.8105 13.2294C12.3886 13.8075 13.376 13.3982 13.376 12.5798V12.5733C13.376 12.333 13.2785 12.0991 13.1097 11.9237L5.34745 4.16804ZM2.98307 4.40188C2.26856 4.40188 1.68396 3.82378 1.68396 3.10277C1.68396 2.38176 2.26856 1.80366 2.98307 1.80366C3.69758 1.80366 4.28218 2.38176 4.28218 3.10277C4.28218 3.82378 3.69758 4.40188 2.98307 4.40188ZM2.98307 12.1966C2.26856 12.1966 1.68396 11.6185 1.68396 10.8974C1.68396 10.1764 2.26856 9.59834 2.98307 9.59834C3.69758 9.59834 4.28218 10.1764 4.28218 10.8974C4.28218 11.6185 3.69758 12.1966 2.98307 12.1966ZM6.88041 7.32489C6.69853 7.32489 6.55563 7.18199 6.55563 7.00011C6.55563 6.81823 6.69853 6.67533 6.88041 6.67533C7.06228 6.67533 7.20518 6.81823 7.20518 7.00011C7.20518 7.18199 7.06228 7.32489 6.88041 7.32489ZM11.8105 0.770865L7.52996 5.05144L8.82907 6.35055L13.1097 2.06998C13.2785 1.90109 13.376 1.66725 13.376 1.42042V1.41393C13.376 0.601981 12.3886 0.19276 11.8105 0.770865Z" fill="#2A3246"/>
</svg>
