<svg width="13" height="16" viewBox="0 0 13 16" fill="none" xmlns="http://www.w3.org/2000/svg">
<path d="M0.879883 6.87451C0.879883 7.28701 1.21738 7.62451 1.62988 7.62451H12.1299C12.5424 7.62451 12.8799 7.28701 12.8799 6.87451C12.8799 6.46201 12.5424 6.12451 12.1299 6.12451H1.62988C1.21738 6.12451 0.879883 6.46201 0.879883 6.87451Z" fill="#2A3246"/>
<path d="M8.9724 2.375H7.6299V0.875C7.6299 0.4625 7.2924 0.125 6.8799 0.125C6.4674 0.125 6.1299 0.4625 6.1299 0.875V2.375H4.7874C4.4499 2.375 4.2849 2.78 4.5174 3.0125L6.6099 5.105C6.7599 5.255 6.9924 5.255 7.1424 5.105L9.2349 3.0125C9.4749 2.78 9.3099 2.375 8.9724 2.375Z" fill="#2A3246"/>
<path d="M4.7874 13.6252H6.1299V15.1252C6.1299 15.5377 6.4674 15.8752 6.8799 15.8752C7.2924 15.8752 7.6299 15.5377 7.6299 15.1252V13.6252H8.9724C9.3099 13.6252 9.4749 13.2202 9.2349 12.9877L7.1424 10.8952C6.9924 10.7452 6.7599 10.7452 6.6099 10.8952L4.5174 12.9877C4.2849 13.2202 4.4499 13.6252 4.7874 13.6252Z" fill="#2A3246"/>
<path d="M1.62988 9.875H12.1299C12.5424 9.875 12.8799 9.5375 12.8799 9.125C12.8799 8.7125 12.5424 8.375 12.1299 8.375H1.62988C1.21738 8.375 0.879883 8.7125 0.879883 9.125C0.879883 9.5375 1.21738 9.875 1.62988 9.875Z" fill="#2A3246"/>
</svg>
