<svg width="14" height="16" viewBox="0 0 14 16" fill="none" xmlns="http://www.w3.org/2000/svg">
<path d="M8.88909 14.4367H10.3152V13.0105H8.88909V14.4367ZM11.7414 5.87984H13.1675V4.4537H11.7414V5.87984ZM0.332275 3.02757V13.0105C0.332275 13.7949 0.974037 14.4367 1.75841 14.4367H3.89762C4.2898 14.4367 4.61068 14.1158 4.61068 13.7236C4.61068 13.3314 4.2898 13.0105 3.89762 13.0105H2.47148C2.07929 13.0105 1.75841 12.6896 1.75841 12.2975V3.74063C1.75841 3.34845 2.07929 3.02757 2.47148 3.02757H3.89762C4.2898 3.02757 4.61068 2.70669 4.61068 2.3145C4.61068 1.92231 4.2898 1.60143 3.89762 1.60143H1.75841C0.974037 1.60143 0.332275 2.24319 0.332275 3.02757ZM11.7414 1.60143V3.02757H13.1675C13.1675 2.24319 12.5257 1.60143 11.7414 1.60143ZM6.74989 15.8628C7.14208 15.8628 7.46296 15.5419 7.46296 15.1497V0.888361C7.46296 0.496174 7.14208 0.175293 6.74989 0.175293C6.3577 0.175293 6.03682 0.496174 6.03682 0.888361V15.1497C6.03682 15.5419 6.3577 15.8628 6.74989 15.8628ZM11.7414 11.5844H13.1675V10.1582H11.7414V11.5844ZM8.88909 3.02757H10.3152V1.60143H8.88909V3.02757ZM11.7414 8.73211H13.1675V7.30597H11.7414V8.73211ZM11.7414 14.4367C12.5257 14.4367 13.1675 13.7949 13.1675 13.0105H11.7414V14.4367Z" fill="#2A3246"/>
</svg>
