<svg width="15" height="12" viewBox="0 0 15 12" fill="none" xmlns="http://www.w3.org/2000/svg">
<path d="M11.5725 10.5882H14.2196C14.4196 10.5882 14.5872 10.6559 14.7225 10.7912C14.8578 10.9265 14.9255 11.0941 14.9255 11.2941C14.9255 11.4941 14.8578 11.6618 14.7225 11.7971C14.5872 11.9324 14.4196 12 14.2196 12H10.1608L11.5725 10.5882ZM3.049 12C2.95488 12 2.86371 11.9824 2.77547 11.9471C2.68724 11.9118 2.60782 11.8588 2.53724 11.7882L1.249 10.5C0.978412 10.2294 0.840177 9.89412 0.834294 9.49412C0.828412 9.09412 0.960765 8.75294 1.23135 8.47059L8.99606 0.423529C9.26665 0.141176 9.599 0 9.99312 0C10.3872 0 10.7196 0.135294 10.9902 0.405882L14.5019 3.91765C14.7725 4.18824 14.9078 4.52353 14.9078 4.92353C14.9078 5.32353 14.7725 5.65882 14.5019 5.92941L8.78429 11.7882C8.71371 11.8588 8.63429 11.9118 8.54606 11.9471C8.45782 11.9824 8.36665 12 8.27253 12H3.049ZM7.97253 10.5882L13.5137 4.90588L10.0196 1.41176L2.21959 9.45882L3.349 10.5882H7.97253Z" fill="#2A3246"/>
</svg>
