<svg width="14" height="13" viewBox="0 0 14 13" fill="none" xmlns="http://www.w3.org/2000/svg">
<path d="M4.26449 0.481494C4.59516 0.812164 4.59516 1.34632 4.26449 1.67699L3.51836 2.42312L8.53777 2.42312C11.3442 2.42312 13.625 4.7039 13.625 7.51035C13.625 10.3168 11.3442 12.5976 8.53777 12.5976L6.20612 12.5976C5.73979 12.5976 5.35825 12.216 5.35825 11.7497C5.35825 11.2834 5.73979 10.9018 6.20612 10.9018L8.53777 10.9018C10.4116 10.9018 11.9293 9.38415 11.9293 7.51035C11.9293 5.63656 10.4116 4.11887 8.53777 4.11887L3.51836 4.11887L4.26449 4.86499C4.59516 5.19566 4.59516 5.72982 4.26449 6.06049C3.93382 6.39116 3.39966 6.39116 3.06899 6.06049L0.873002 3.8645C0.542332 3.53383 0.542332 2.99967 0.873002 2.669L3.06899 0.473015C3.39118 0.150824 3.93382 0.150824 4.26449 0.481494Z" fill="#2A3246"/>
</svg>
