<svg width="18" height="18" viewBox="0 0 18 18" fill="none" xmlns="http://www.w3.org/2000/svg">
<path d="M7.19404 8.15719V12.4288H5.48541V7.30287C5.48541 6.36313 6.25429 5.59424 7.19404 5.59424H12.3199V7.30287H8.04835C7.57848 7.30287 7.19404 7.68731 7.19404 8.15719ZM4.6311 14.1374H8.90266H13.1742C13.6441 14.1374 14.0285 13.7529 14.0285 13.2831V4.73993C14.0285 4.27006 14.413 3.88562 14.8829 3.88562C15.3527 3.88562 15.7372 4.27006 15.7372 4.73993V5.59424H16.5915C17.0614 5.59424 17.4458 5.97869 17.4458 6.44856C17.4458 6.91843 17.0614 7.30287 16.5915 7.30287H15.7372V14.1374C15.7372 15.0771 14.9683 15.846 14.0285 15.846H7.19404V16.7003C7.19404 17.1702 6.8096 17.5546 6.33972 17.5546C5.86985 17.5546 5.48541 17.1702 5.48541 16.7003V15.846H4.6311C4.16122 15.846 3.77678 15.4616 3.77678 14.9917C3.77678 14.5218 4.16122 14.1374 4.6311 14.1374ZM5.77588 1.6644C7.20258 0.904063 9.0479 0.374389 11.1324 0.502536L7.87749 3.75747L6.74125 2.62123C4.10142 3.86853 2.17921 6.35458 1.70934 9.33614C1.65808 9.68641 1.33344 9.92561 0.974632 9.86581C0.624363 9.81455 0.385157 9.48137 0.444958 9.1311C0.957546 5.88471 2.97373 3.15091 5.77588 1.6644Z" fill="#2A3246"/>
</svg>
