<svg width="17" height="14" viewBox="0 0 17 14" fill="none" xmlns="http://www.w3.org/2000/svg">
<path d="M14.8239 4.8797L14.8239 3.45357L13.3977 3.45357L13.3977 4.8797L14.8239 4.8797ZM6.26704 2.02743L6.26704 0.601296L4.84091 0.601296L4.84091 2.02743L6.26704 2.02743ZM3.41477 13.4365L13.3977 13.4365C14.1821 13.4365 14.8239 12.7948 14.8239 12.0104L14.8239 9.87118C14.8239 9.47899 14.503 9.15811 14.1108 9.15811C13.7186 9.15811 13.3977 9.47899 13.3977 9.87118L13.3977 11.2973C13.3977 11.6895 13.0768 12.0104 12.6847 12.0104L4.12784 12.0104C3.73565 12.0104 3.41477 11.6895 3.41477 11.2973L3.41477 9.87118C3.41477 9.47899 3.09389 9.15811 2.7017 9.15811C2.30952 9.15811 1.98864 9.479 1.98864 9.87118L1.98864 12.0104C1.98864 12.7948 2.6304 13.4365 3.41477 13.4365ZM1.98864 2.02743L3.41477 2.02743L3.41477 0.601296C2.6304 0.601296 1.98864 1.24306 1.98864 2.02743ZM16.25 7.01891C16.25 6.62672 15.9291 6.30584 15.5369 6.30584L1.27557 6.30584C0.88338 6.30584 0.5625 6.62672 0.5625 7.01891C0.5625 7.4111 0.88338 7.73198 1.27557 7.73198L15.5369 7.73198C15.9291 7.73198 16.25 7.4111 16.25 7.01891ZM11.9716 2.02743L11.9716 0.601296L10.5455 0.601296L10.5455 2.02743L11.9716 2.02743ZM3.41477 4.87971L3.41477 3.45357L1.98864 3.45357L1.98864 4.87971L3.41477 4.87971ZM9.11932 2.02743L9.11932 0.601296L7.69318 0.601296L7.69318 2.02743L9.11932 2.02743ZM14.8239 2.02743C14.8239 1.24306 14.1821 0.601296 13.3977 0.601296L13.3977 2.02743L14.8239 2.02743Z" fill="#2A3246"/>
</svg>
