<svg width="15" height="14" viewBox="0 0 15 14" fill="none" xmlns="http://www.w3.org/2000/svg">
<path d="M12.8954 11.2004C12.7059 11.2004 12.5472 11.1362 12.4192 11.0078C12.2908 10.8799 12.2266 10.7211 12.2266 10.5317V9.86288H11.5579C11.3684 9.86288 11.2096 9.79868 11.0817 9.67027C10.9533 9.54231 10.8891 9.38359 10.8891 9.1941C10.8891 9.00462 10.9533 8.84567 11.0817 8.71727C11.2096 8.58931 11.3684 8.52533 11.5579 8.52533H12.2266V7.85655C12.2266 7.66706 12.2908 7.50812 12.4192 7.37971C12.5472 7.25175 12.7059 7.18777 12.8954 7.18777C13.0849 7.18777 13.2436 7.25175 13.3716 7.37971C13.5 7.50812 13.5642 7.66706 13.5642 7.85655V8.52533H14.233C14.4225 8.52533 14.5812 8.58931 14.7091 8.71727C14.8375 8.84567 14.9017 9.00462 14.9017 9.1941C14.9017 9.38359 14.8375 9.54231 14.7091 9.67027C14.5812 9.79868 14.4225 9.86288 14.233 9.86288H13.5642V10.5317C13.5642 10.7211 13.5 10.8799 13.3716 11.0078C13.2436 11.1362 13.0849 11.2004 12.8954 11.2004ZM4.20131 6.519L3.56597 5.148L2.19498 4.51266L3.56597 3.87733L4.20131 2.50633L4.83665 3.87733L6.20764 4.51266L4.83665 5.148L4.20131 6.519ZM4.20131 13.2068L3.56597 11.8358L2.19498 11.2004L3.56597 10.5651L4.20131 9.1941L4.83665 10.5651L6.20764 11.2004L4.83665 11.8358L4.20131 13.2068ZM2.19498 9.1941L1.77699 8.27454L0.857422 7.85655L1.77699 7.43856L2.19498 6.519L2.61296 7.43856L3.53253 7.85655L2.61296 8.27454L2.19498 9.1941ZM10.5213 13.374C9.41777 12.7275 8.53454 11.8525 7.87156 10.749C7.20813 9.64553 6.87642 8.45845 6.87642 7.18777C6.87642 6.14002 7.08552 5.15915 7.50373 4.24515C7.92149 3.33116 8.48148 2.52862 9.1837 1.83755H7.54519C7.35571 1.83755 7.19698 1.77335 7.06902 1.64495C6.94062 1.51699 6.87642 1.35826 6.87642 1.16878C6.87642 0.97929 6.94062 0.820344 7.06902 0.691939C7.19698 0.56398 7.35571 0.5 7.54519 0.5H10.8891C11.0786 0.5 11.2373 0.56398 11.3652 0.691939C11.4937 0.820344 11.5579 0.97929 11.5579 1.16878V4.51266C11.5579 4.70215 11.4937 4.86087 11.3652 4.98883C11.2373 5.11724 11.0786 5.18144 10.8891 5.18144C10.6996 5.18144 10.5409 5.11724 10.4129 4.98883C10.2845 4.86087 10.2203 4.70215 10.2203 4.51266V2.69025C9.6184 3.281 9.13354 3.9665 8.76571 4.74674C8.39788 5.52698 8.21397 6.34065 8.21397 7.18777C8.21397 8.25782 8.50377 9.24426 9.08338 10.1471C9.66299 11.05 10.4042 11.7633 11.3071 12.2872C11.3739 12.3318 11.4326 12.4016 11.483 12.4965C11.5329 12.591 11.5579 12.694 11.5579 12.8055C11.5356 13.073 11.4214 13.2736 11.2154 13.4074C11.009 13.5412 10.7776 13.53 10.5213 13.374Z" fill="#2A3246"/>
</svg>
