<svg width="18" height="18" viewBox="0 0 18 18" fill="none" xmlns="http://www.w3.org/2000/svg">
<path d="M10.5018 8.15719V12.4288H12.2104V7.30287C12.2104 6.36313 11.4415 5.59424 10.5018 5.59424H5.37588V7.30287H9.64745C10.1173 7.30287 10.5018 7.68731 10.5018 8.15719ZM13.0647 14.1374H8.79314H4.52157C4.0517 14.1374 3.66725 13.7529 3.66725 13.2831V4.73993C3.66725 4.27006 3.28281 3.88562 2.81294 3.88562C2.34307 3.88562 1.95863 4.27006 1.95863 4.73993V5.59424H1.10431C0.634441 5.59424 0.25 5.97869 0.25 6.44856C0.25 6.91843 0.634441 7.30287 1.10431 7.30287H1.95863V14.1374C1.95863 15.0771 2.72751 15.846 3.66725 15.846H10.5018V16.7003C10.5018 17.1702 10.8862 17.5546 11.3561 17.5546C11.826 17.5546 12.2104 17.1702 12.2104 16.7003V15.846H13.0647C13.5346 15.846 13.919 15.4616 13.919 14.9917C13.919 14.5218 13.5346 14.1374 13.0647 14.1374ZM11.9199 1.6644C10.4932 0.904063 8.6479 0.374389 6.56338 0.502536L9.81831 3.75747L10.9546 2.62123C13.5944 3.86853 15.5166 6.35458 15.9865 9.33614C16.0377 9.68641 16.3624 9.92561 16.7212 9.86581C17.0714 9.81455 17.3106 9.48137 17.2508 9.1311C16.7383 5.88471 14.7221 3.15091 11.9199 1.6644Z" fill="#2A3246"/>
</svg>
