<svg width="49" height="13" viewBox="0 0 49 13" fill="none" xmlns="http://www.w3.org/2000/svg">
<path d="M24.7469 1.36816H29.0846C31.5845 1.36816 33.0845 2.76001 33.0845 5.09776C33.0845 7.422 31.6386 8.81384 29.2198 8.81384H27.2604V12.0435H24.7469V1.36816ZM27.2604 6.54365H28.7063C29.8684 6.54365 30.517 6.03016 30.517 5.09776C30.517 4.16536 29.8684 3.63835 28.7063 3.63835H27.2604V6.54365Z" fill="#E5E5E5"/>
<path d="M36.8233 12.0435H34.3909V3.86807H36.8233V5.34099H36.9043C37.4178 4.30049 38.3502 3.67889 39.9042 3.67889H39.9853V6.03016H39.8502C37.634 6.03016 36.8233 6.71932 36.8233 8.13819V12.0435Z" fill="#E5E5E5"/>
<path d="M44.3737 12.2326C41.9278 12.2326 40.4008 10.584 40.4008 7.94901C40.4008 5.32748 41.9278 3.67889 44.3737 3.67889C46.8195 3.67889 48.3465 5.32748 48.3465 7.94901C48.3465 10.584 46.8195 12.2326 44.3737 12.2326ZM44.3737 9.93542C45.2925 9.93542 45.8601 9.16518 45.8601 7.94901C45.8601 6.73283 45.2925 5.9761 44.3737 5.9761C43.4548 5.9761 42.8872 6.73283 42.8872 7.94901C42.8872 9.16518 43.4548 9.93542 44.3737 9.93542Z" fill="#E5E5E5"/>
<path d="M0.514893 1.36752H4.85257C7.35248 1.36752 8.85243 2.75936 8.85243 5.09711C8.85243 7.42135 7.40653 8.81319 4.9877 8.81319H3.02831V12.0428H0.514893V1.36752ZM3.02831 6.543H4.47421C5.63633 6.543 6.28495 6.02951 6.28495 5.09711C6.28495 4.16471 5.63633 3.6377 4.47421 3.6377H3.02831V6.543Z" fill="#E5E5E5"/>
<path d="M12.9425 1.65129C12.9425 2.51612 12.3885 3.07016 11.5102 3.07016C10.6453 3.07016 10.1048 2.51612 10.1048 1.65129C10.1048 0.786456 10.6453 0.232422 11.5102 0.232422C12.3885 0.232422 12.9425 0.786456 12.9425 1.65129ZM12.7398 3.86742V12.0428H10.3075V3.86742H12.7398Z" fill="#E5E5E5"/>
<path d="M19.4755 7.89431L22.5294 12.0428H19.6106L18.1106 9.7591L16.6783 12.0428H13.7594L16.8404 7.85377L14.0027 3.86742H16.8404L18.1917 6.00248L19.489 3.86742H22.3267L19.4755 7.89431Z" fill="#E5E5E5"/>
</svg>
