<svg width="17" height="14" viewBox="0 0 17 14" fill="none" xmlns="http://www.w3.org/2000/svg">
<rect x="1.55566" y="1.33789" width="14.3889" height="11.7" rx="2.25" stroke="#2A3246" stroke-width="1.5"/>
<path d="M1.7781 4.99453H9.27411C9.84406 4.99453 10.2354 4.995 10.5388 5.01979C10.8352 5.044 10.9945 5.08841 11.1097 5.14712C11.3731 5.28134 11.5873 5.49552 11.7215 5.75894C11.7802 5.87418 11.8246 6.03339 11.8489 6.32979C11.8736 6.6332 11.8741 7.02458 11.8741 7.59453V12.8361H5.9781C5.12812 12.8361 4.52672 12.8356 4.05656 12.7972C3.59341 12.7594 3.31071 12.6877 3.08852 12.5745C2.63693 12.3444 2.26978 11.9773 2.03969 11.5257C1.92648 11.3035 1.85482 11.0208 1.81698 10.5576C1.77857 10.0875 1.7781 9.48609 1.7781 8.63611V4.99453Z" stroke="#2A3246" stroke-width="1.2"/>
</svg>
